<?xml version="1.0" encoding="utf-8"?>
<!-- Generator: Adobe Illustrator 25.2.1, SVG Export Plug-In . SVG Version: 6.00 Build 0)  -->
<svg version="1.1" id="Layer_1" focusable="false" xmlns="http://www.w3.org/2000/svg" xmlns:xlink="http://www.w3.org/1999/xlink"
	 x="0px" y="0px" viewBox="0 0 640 512" style="enable-background:new 0 0 640 512;" xml:space="preserve">
<style type="text/css">
	.st0{fill:#FFB900;}
</style>
<g>
	<circle class="st0" cx="400" cy="48" r="48"/>
	<path class="st0" d="M512,256c-70.7,0-128,57.3-128,128s57.3,128,128,128s128-57.3,128-128S582.7,256,512,256z M513,462.9
		c-43.5,0-78.8-35.3-78.8-78.8c0-43.5,35.3-78.8,78.8-78.8s78.8,35.3,78.8,78.8C591.8,427.6,556.5,462.9,513,462.9z"/>
	<path class="st0" d="M396,217c5.7,4.5,12.7,7,20,7h64c17.7,0,32-14.3,32-32s-14.3-32-32-32h-52.8L356,103
		c-12-9.6-29.1-9.3-40.8,0.7l-112,96c-13.4,11.5-15,31.7-3.5,45.1c1.9,2.2,4.1,4.2,6.5,5.8l81.7,54.5V416c0,17.7,14.3,32,32,32
		c17.7,0,32-14.3,32-32V288c0-10.7-5.3-20.7-14.2-26.6l-41.4-27.6l58.2-49.9L396,217z"/>
	<path class="st0" d="M127.9,256.5c-70.7,0-128,57.3-128,128s57.3,128,128,128s128-57.3,128-128S198.5,256.5,127.9,256.5z
		 M128.9,463.4c-43.5,0-78.8-35.3-78.8-78.8c0-43.5,35.3-78.8,78.8-78.8s78.8,35.3,78.8,78.8C207.7,428.1,172.4,463.4,128.9,463.4z"
		/>
</g>
</svg>
